<?xml version="1.0" encoding="UTF-8" standalone="no"?>
<svg width="101px" height="112px" viewBox="0 0 101 112" version="1.1" xmlns="http://www.w3.org/2000/svg" xmlns:xlink="http://www.w3.org/1999/xlink">
    <!-- Generator: Sketch 44.1 (41455) - http://www.bohemiancoding.com/sketch -->
    <title>Group 11</title>
    <desc>Created with Sketch.</desc>
    <defs></defs>
    <g id="Page-1" stroke="none" stroke-width="1" fill="none" fill-rule="evenodd">
        <g id="Desktop-HD" transform="translate(-1014.000000, -1831.000000)">
            <g id="统计分析" transform="translate(16.000000, 1502.000000)">
                <g id="快捷入口" transform="translate(708.000000, 203.000000)">
                    <g id="Group-11" transform="translate(290.000000, 126.000000)">
                        <text id="暂无相关数据" font-family="MicrosoftYaHei, Microsoft YaHei" font-size="12" font-weight="normal" fill="#999999">
                            <tspan x="15" y="110">暂无相关数据</tspan>
                        </text>
                        <g id="Group-6">
                            <ellipse id="Oval-3" fill="#F5F5F5" cx="51.0674157" cy="87.3539326" rx="18.1573034" ry="3.97191011"></ellipse>
                            <g id="图表-2" transform="translate(19.292135, 7.943820)" stroke="#E3E4E6" fill="#EDEDEF">
                                <path d="M31.0555655,4.53932584 C13.9041316,4.53932584 0,18.4434575 0,35.5952654 C0,52.7466992 13.9041316,66.6507374 31.0555655,66.6507374 C48.2073734,66.6507374 62.1110375,52.7466992 62.1110375,35.5952654 L31.0555655,35.5952654 L31.0555655,4.53932584 Z M35.8954728,0 L35.8954728,31.055846 L66.9510383,31.055846 C66.9510383,13.9040381 53.0469067,0 35.8954728,0 Z" id="Fill-1"></path>
                            </g>
                            <path d="M24.9662921,10.7799568 C24.9662921,11.7198324 25.7274517,12.4820683 26.6675967,12.4831449 C27.6074726,12.4842215 28.3707854,11.7219857 28.3707854,10.7818409 C28.371862,9.84196531 27.6096258,9.07972943 26.6694808,9.07865282 C25.7296049,9.07757622 24.9673687,9.8398121 24.9662921,10.7799568 Z" id="Path" fill="#E3E4E6"></path>
                            <path d="M16.7605896,61.9481287 C16.5792854,61.9492934 16.4046961,61.8491258 16.2760625,61.6717941 C16.1482682,61.4930064 16.0752429,61.2519052 16.0752429,61.0006124 L16.0752429,60.0475637 C16.0752429,59.475385 15.7407534,59.011236 15.3286221,59.011236 C14.916281,59.011236 14.5817915,59.475385 14.5817915,60.0475637 L14.5817915,60.9994477 C14.5817915,61.2507404 14.5096056,61.4921329 14.3818113,61.6706293 C14.2538072,61.847961 14.079218,61.9481287 13.8981236,61.9481287 L13.2129868,61.9481287 C12.8006457,61.9618144 12.4735007,62.4373196 12.4833633,63.0103719 C12.4923866,63.5633323 12.8144953,64.0091367 13.2129868,64.0216577 L13.8981236,64.0216577 C14.079218,64.0216577 14.2538072,64.1206606 14.3818113,64.299157 C14.5096056,64.4767799 14.5817915,64.7178812 14.5817915,64.9691739 L14.5817915,65.9222227 C14.5817915,66.4944014 14.9171204,66.9550562 15.3286221,66.9550562 C15.7407534,66.9550562 16.0752429,66.4944014 16.0752429,65.9222227 L16.0752429,64.9691739 C16.0752429,64.4470791 16.3826626,64.0216577 16.7605896,64.0216577 L17.4457264,64.0216577 C17.8442179,63.995451 18.1573034,63.5382904 18.1573034,62.98533 C18.1573034,62.4314959 17.8442179,61.9755001 17.4457264,61.9481287 L16.7605896,61.9481287 Z" id="Path" fill="#EDEDEF"></path>
                            <path d="M99.5958309,53.1534948 C99.2201287,53.1534948 98.915353,52.8465395 98.9145186,52.4683605 L98.9161875,52.4683605 L98.9161875,51.7821757 C98.8982472,51.383407 98.5724022,51.0682578 98.175422,51.0674174 C97.7786504,51.066577 97.4511365,51.379205 97.430693,51.7779737 L97.430693,52.4675201 C97.430693,52.8459092 97.1259174,53.1526544 96.7493807,53.1526544 L96.0691114,53.1526544 C95.6583632,53.1526544 95.3258427,53.4875529 95.3258427,53.9003983 C95.3258427,54.3132437 95.6583632,54.6481422 96.0691114,54.6481422 L96.7493807,54.6481422 C97.1250829,54.6481422 97.430693,54.9534167 97.430693,55.3318058 L97.430693,56.0186209 C97.4444611,56.4215916 97.773018,56.741573 98.1729187,56.741573 C98.573028,56.741573 98.9015849,56.4215916 98.9145186,56.0186209 L98.9161875,55.3324361 C98.9161875,54.9542571 99.2184598,54.6481422 99.5958309,54.6481422 L100.275474,54.6481422 C100.472608,54.6439402 100.659104,54.5603206 100.795324,54.4166126 C100.931337,54.2729046 101.004766,54.0808737 100.99976,53.8823297 C100.991624,53.4827206 100.672246,53.1610584 100.275474,53.1526544 L99.5958309,53.1526544 L99.5958309,53.1534948 Z" id="Path" fill="#E3E4E7"></path>
                            <path d="M38.0552474,3.17382725 C37.8382449,3.17382725 37.6300431,3.08824394 37.475652,2.93604037 C37.3225181,2.78308826 37.2360189,2.57649063 37.2360189,2.36116001 L37.2360189,1.5472452 C37.2360189,1.0569501 36.8364626,0.658226657 36.3423607,0.657478115 C35.8482587,0.657478115 35.4474453,1.05395593 35.4454337,1.54325297 L35.4454337,2.36016196 C35.4454337,2.80953675 35.0780632,3.17307871 34.6262051,3.17382725 L33.8052164,3.17382725 C33.4848673,3.17382725 33.1904178,3.34249875 33.0302433,3.61746323 C32.8700687,3.89217819 32.8700687,4.23051923 33.0302433,4.5052342 C33.1904178,4.78019867 33.4848673,4.94986822 33.8052164,4.94986822 L34.6254507,4.94986822 C35.0780632,4.94986822 35.4454337,5.31341019 35.4454337,5.76353352 L35.4454337,6.57744834 C35.4454337,7.06874149 35.8462471,7.46646688 36.3403491,7.46646688 C36.8354568,7.46646688 37.2360189,7.06874149 37.2360189,6.57744834 L37.2360189,5.76353352 C37.2360189,5.31440824 37.6023835,4.95086628 38.0542416,4.94986822 L38.8754818,4.94986822 C39.3489647,4.92242168 39.7191011,4.53268074 39.7191011,4.06184774 C39.7191011,3.59101474 39.3489647,3.20227186 38.8754818,3.17482531 L38.0552474,3.17482531 L38.0552474,3.17382725 Z" id="Path" fill="#E5E6E9"></path>
                            <path d="M90.2191467,65.8202247 C89.2797339,65.8194958 88.5183114,65.0582747 88.5168539,64.1186609 C88.5168539,63.1791381 89.2804627,62.4157303 90.2191467,62.4157303 C91.1581039,62.4157303 91.9213483,63.1795026 91.9213483,64.1186609 C91.919982,65.0582747 91.1584683,65.8194958 90.2191467,65.8202247 Z" id="Path" stroke="#E5E6E9"></path>
                            <path d="M6.80767452,43.0733651 C6.52018767,43.0733651 6.244343,42.9597599 6.04041698,42.7558339 C5.83724208,42.552659 5.72288578,42.2768143 5.72288578,41.9893274 L5.72288578,40.9037874 C5.72288578,40.2493839 5.19241526,39.7191011 4.53819958,39.7191011 C3.8839839,39.7191011 3.35351338,40.2493839 3.35351338,40.9037874 L3.35351338,41.9893274 C3.35426449,42.2760631 3.23990819,42.5519078 3.03673328,42.7558339 C2.83355838,42.9590088 2.55846482,43.0733651 2.27097796,43.0733651 L1.184687,43.0733651 C0.53103465,43.072614 0.000751905638,43.6030846 7.96935665e-07,44.2565492 C-0.000750311767,44.9107649 0.529532432,45.4412355 1.18318478,45.4419866 L2.27097796,45.4419866 C2.86942382,45.4419866 3.35501559,45.9268273 3.35501559,46.5252732 L3.35501559,47.6130665 C3.35501559,48.2672822 3.88529834,48.7977528 4.5397018,48.7977528 C5.19391748,48.7977528 5.72420022,48.2672822 5.72420022,47.6130665 L5.72420022,46.5260243 C5.72420022,46.2385375 5.8387443,45.9619417 6.0419192,45.7587667 C6.24584521,45.5548407 6.52150211,45.4404844 6.80992785,45.4412355 L7.89471659,45.4412355 C8.20868003,45.4412355 8.50931129,45.3171148 8.73163946,45.0949744 C8.95396764,44.8733973 9.07865169,44.572766 9.07865169,44.2588025 L9.07865169,44.2580514 C9.07865169,43.604399 8.54893227,43.0733651 7.8954677,43.072614 L6.80767452,43.072614 L6.80767452,43.0733651 Z" id="Path" fill="#E5E6E9"></path>
                            <g id="放大镜" transform="translate(47.662921, 48.797753)">
                                <path d="M34.7802499,30.6507516 L29.7606002,25.631503 C29.2988513,25.169353 28.5499919,25.169353 28.087842,25.631503 L27.9526233,25.7667217 C27.9526233,25.7667217 25.4727929,23.3009861 25.4070171,23.2597902 C27.3716413,20.8141656 28.5477574,17.7085478 28.5477574,14.3276224 C28.5477574,6.44408685 22.1570132,0.0535145116 14.2738787,0.0535145116 C6.39074423,0.0535145116 0,6.44425874 0,14.3276224 C0,22.2105277 6.39074423,28.6017303 14.2738787,28.6017303 C17.6552624,28.6017303 20.7611095,27.4251559 23.2066768,25.4600732 C23.2481019,25.5256772 25.7136082,28.0052784 25.7136082,28.0052784 L25.5782177,28.1404398 C25.1164688,28.602647 25.1164688,29.3521939 25.5782177,29.8138855 L30.597409,34.8331342 C31.0596163,35.2952841 31.8087048,35.2952841 32.2706829,34.8331342 L34.7802499,32.3235098 C35.2419988,31.8613599 35.2419988,31.1126724 34.7802499,30.6507516 Z" id="Fill-1" stroke="#E3E4E8" fill="#FFFFFF"></path>
                                <path d="M14.2738787,23.1030856 C9.42720574,23.1030856 5.49864471,19.1742953 5.49864471,14.3276224 C5.49864471,9.48009 9.42720574,5.55129978 14.2738787,5.55129978 C19.12101,5.55129978 23.0502586,9.48009 23.0502586,14.3276224 C23.0502586,19.1742953 19.1212392,23.1030856 14.2738787,23.1030856 Z" id="Path" stroke="#E3E4E6" fill="#EDEEEF"></path>
                            </g>
                        </g>
                    </g>
                </g>
            </g>
        </g>
    </g>
</svg>