<?xml version="1.0" standalone="no"?><!DOCTYPE svg PUBLIC "-//W3C//DTD SVG 1.1//EN" "http://www.w3.org/Graphics/SVG/1.1/DTD/svg11.dtd"><svg t="1507619586002" class="icon" style="" viewBox="0 0 1024 1024" version="1.1" xmlns="http://www.w3.org/2000/svg" p-id="1439" xmlns:xlink="http://www.w3.org/1999/xlink" width="200" height="200"><defs><style type="text/css"></style></defs><path d="M512 192c-213.333333 0-394.666667 132.266667-469.333333 320 74.666667 187.733333 256 320 469.333333 320s394.666667-132.266667 469.333333-320C906.666667 324.266667 725.333333 192 512 192zM512 725.333333c-117.333333 0-213.333333-96-213.333333-213.333333s96-213.333333 213.333333-213.333333 213.333333 96 213.333333 213.333333S629.333333 725.333333 512 725.333333zM512 384c-70.4 0-128 57.6-128 128s57.6 128 128 128 128-57.6 128-128S582.4 384 512 384z" p-id="1440" fill="#dddddd"></path></svg>